<svg xmlns="http://www.w3.org/2000/svg" width="232" height="28.457" viewBox="0 0 232 28.457"><path d="M272.423,81.572a11.9,11.9,0,0,1-.8,4.433,7.3,7.3,0,0,1-2.5,3.26,7.572,7.572,0,0,1-2.5,1.133,13.517,13.517,0,0,1-3.408.385h-4.153V73.053q1.41-.161,2.489-.213t2.01-.052a11.381,11.381,0,0,1,4.259.692A6.716,6.716,0,0,1,272,78.165a13.171,13.171,0,0,1,.426,3.407m-2.37.145a12.19,12.19,0,0,0-.294-2.759,5.3,5.3,0,0,0-1.041-2.187,4.881,4.881,0,0,0-1.989-1.428,8.311,8.311,0,0,0-3.111-.506c-.355,0-.726.009-1.108.027s-.761.053-1.135.106v13.87h2.216a7.336,7.336,0,0,0,3.031-.56,5.242,5.242,0,0,0,2-1.52,6,6,0,0,0,1.1-2.254,11.162,11.162,0,0,0,.333-2.788" transform="translate(-178.447 -67.523)" fill="#989ba6"/><path d="M290.219,85.854a9.846,9.846,0,0,1-.319,2.516,6.082,6.082,0,0,1-1.026,2.142A5.072,5.072,0,0,1,287.05,92a6.017,6.017,0,0,1-2.716.559,6.192,6.192,0,0,1-2.7-.532,4.9,4.9,0,0,1-1.8-1.438,5.945,5.945,0,0,1-1.011-2.116,9.918,9.918,0,0,1-.32-2.543,8.491,8.491,0,0,1,.373-2.529A6,6,0,0,1,280,81.315a5.467,5.467,0,0,1,1.85-1.424,5.923,5.923,0,0,1,2.6-.533,6.035,6.035,0,0,1,2.662.533,4.991,4.991,0,0,1,1.784,1.424,5.844,5.844,0,0,1,1.012,2.063,9.4,9.4,0,0,1,.319,2.475m-2.37,0a9.183,9.183,0,0,0-.147-1.637,4.541,4.541,0,0,0-.522-1.464,2.873,2.873,0,0,0-1.042-1.052,3.351,3.351,0,0,0-1.736-.4,3.31,3.31,0,0,0-1.7.4,3.061,3.061,0,0,0-1.083,1.052,4.607,4.607,0,0,0-.574,1.464,7.775,7.775,0,0,0-.174,1.637,9.791,9.791,0,0,0,.147,1.678,4.492,4.492,0,0,0,.547,1.531,3.393,3.393,0,0,0,1.069,1.118,3.058,3.058,0,0,0,1.711.439,3.245,3.245,0,0,0,1.764-.439,3.069,3.069,0,0,0,1.068-1.118,4.86,4.86,0,0,0,.522-1.531,9.887,9.887,0,0,0,.147-1.678" transform="translate(-182.533 -68.904)" fill="#989ba6"/><path d="M301.419,90.655a4.158,4.158,0,0,0,2.344-.694,2.73,2.73,0,0,0,.664-.628,1.071,1.071,0,0,0,.241-.6v-9.18h.159a1.168,1.168,0,0,0,.146-.013,1.147,1.147,0,0,1,.172-.014,2.057,2.057,0,0,1,1.265.387,1.64,1.64,0,0,1,.519,1.4V92.2h-2.262V91.05a4.821,4.821,0,0,1-1.491,1.076,5.612,5.612,0,0,1-2.477.472,4.932,4.932,0,0,1-2.4-.478,3.179,3.179,0,0,1-1.264-1.225,4.087,4.087,0,0,1-.492-1.637c-.053-.595-.081-1.168-.081-1.717V79.555h.16a1.164,1.164,0,0,0,.147-.013,1.133,1.133,0,0,1,.172-.014,2.105,2.105,0,0,1,1.264.374,1.6,1.6,0,0,1,.519,1.387V87.56a7.41,7.41,0,0,0,.146,1.655,1.522,1.522,0,0,0,.6.933,2.335,2.335,0,0,0,.865.4,4.868,4.868,0,0,0,1.078.107" transform="translate(-186.308 -68.94)" fill="#989ba6"/><path d="M314.058,89.618a3.953,3.953,0,0,1-.227-1.105c-.026-.4-.04-.794-.04-1.185V74.869h.159a1.027,1.027,0,0,0,.148-.013,1.243,1.243,0,0,1,.173-.013,2.14,2.14,0,0,1,1.251.37,1.535,1.535,0,0,1,.532,1.348v2.115h3.966v1.943h-3.966v6.869q0,2.182,1.73,2.183a2.157,2.157,0,0,0,.8-.146,3.469,3.469,0,0,0,.666-.346,4.339,4.339,0,0,0,.492-.387,1.919,1.919,0,0,0,.253-.265,7.292,7.292,0,0,1,.547.772,1.384,1.384,0,0,1,.225.719.822.822,0,0,1-.239.519,2.414,2.414,0,0,1-.666.518,4.349,4.349,0,0,1-1.051.4,5.609,5.609,0,0,1-1.37.158,4.041,4.041,0,0,1-2.21-.531,2.9,2.9,0,0,1-1.171-1.464" transform="translate(-189.949 -67.955)" fill="#989ba6"/><path d="M335.345,85.854a9.844,9.844,0,0,1-.32,2.516A6.079,6.079,0,0,1,334,90.512,5.085,5.085,0,0,1,332.176,92a6.02,6.02,0,0,1-2.715.559,6.2,6.2,0,0,1-2.7-.532,4.906,4.906,0,0,1-1.8-1.438,5.944,5.944,0,0,1-1.01-2.116,9.918,9.918,0,0,1-.32-2.543A8.463,8.463,0,0,1,324,83.4a5.984,5.984,0,0,1,1.118-2.089,5.462,5.462,0,0,1,1.851-1.424,5.919,5.919,0,0,1,2.595-.533,6.043,6.043,0,0,1,2.663.533,4.979,4.979,0,0,1,1.783,1.424,5.815,5.815,0,0,1,1.013,2.063,9.393,9.393,0,0,1,.32,2.475m-2.369,0a9.17,9.17,0,0,0-.148-1.637,4.538,4.538,0,0,0-.521-1.464,2.882,2.882,0,0,0-1.043-1.052,3.352,3.352,0,0,0-1.737-.4,3.3,3.3,0,0,0-1.7.4,3.058,3.058,0,0,0-1.082,1.052,4.561,4.561,0,0,0-.574,1.464A7.733,7.733,0,0,0,326,85.854a9.866,9.866,0,0,0,.146,1.678,4.521,4.521,0,0,0,.548,1.531,3.389,3.389,0,0,0,1.07,1.118,3.049,3.049,0,0,0,1.709.439,3.245,3.245,0,0,0,1.764-.439,3.084,3.084,0,0,0,1.069-1.118,4.857,4.857,0,0,0,.521-1.531,9.874,9.874,0,0,0,.148-1.678" transform="translate(-192.017 -68.904)" fill="#989ba6"/><path d="M342.21,79.571a2.047,2.047,0,0,1,1.1.307,1.364,1.364,0,0,1,.6,1.024,3.9,3.9,0,0,1,1.118-1.052,3.064,3.064,0,0,1,1.73-.493,3.885,3.885,0,0,1,.626.055,2.871,2.871,0,0,1,.625.172,1.272,1.272,0,0,1,.479.333.82.82,0,0,1,.186.559,2.3,2.3,0,0,1-.213.919,5.091,5.091,0,0,1-.426.812,2.661,2.661,0,0,0-.745-.492,2.55,2.55,0,0,0-1.013-.173,2.583,2.583,0,0,0-1.6.546,2.038,2.038,0,0,0-.505.572,1.3,1.3,0,0,0-.186.665v8.839h-2.262V79.6h.186a1.012,1.012,0,0,0,.16-.013.84.84,0,0,1,.132-.013" transform="translate(-195.82 -68.904)" fill="#989ba6"/><path d="M366.351,87.27v-14.3a.747.747,0,0,0,.186-.026,1.892,1.892,0,0,0,.2-.013,2.312,2.312,0,0,1,.253-.013,2.115,2.115,0,0,1,.5.066,1.384,1.384,0,0,1,.494.24,1.259,1.259,0,0,1,.373.506,2.188,2.188,0,0,1,.146.865V90.811h-2.157L357.3,76.994V90.811h-2.157V73.055a2.668,2.668,0,0,1,.453-.093,4.417,4.417,0,0,1,.585-.039,1.791,1.791,0,0,1,.919.2,1.964,1.964,0,0,1,.624.678Z" transform="translate(-198.639 -67.551)" fill="#989ba6"/><path d="M386.842,89.261a7.033,7.033,0,0,0,.055,1,1.041,1.041,0,0,0,.2.532.691.691,0,0,0,.4.227,3.217,3.217,0,0,0,.653.053v1.065a3.571,3.571,0,0,1-.587.133,4.608,4.608,0,0,1-.719.053,3.031,3.031,0,0,1-1.455-.332,1.448,1.448,0,0,1-.727-1.185,6.058,6.058,0,0,1-1.593,1.132,5.479,5.479,0,0,1-2.44.466,6.317,6.317,0,0,1-1.393-.16,3.376,3.376,0,0,1-1.273-.585,3.292,3.292,0,0,1-.942-1.146,4,4,0,0,1-.371-1.837,3.506,3.506,0,0,1,.7-2.262,5.008,5.008,0,0,1,1.738-1.384,7.751,7.751,0,0,1,2.216-.693,16.856,16.856,0,0,1,2.161-.212h.558a5,5,0,0,1,.558.026v-.4a2.618,2.618,0,0,0-.572-1.824,2.953,2.953,0,0,0-2.2-.626,5.875,5.875,0,0,0-2.023.306,7.292,7.292,0,0,0-1.6.839h-.265a3.962,3.962,0,0,1-.359-.746,1.982,1.982,0,0,1-.148-.639.842.842,0,0,1,.427-.652,4.408,4.408,0,0,1,1.1-.544,8.652,8.652,0,0,1,1.5-.374,10.2,10.2,0,0,1,1.624-.133,7.492,7.492,0,0,1,2.265.293,3.5,3.5,0,0,1,1.475.879,3.233,3.233,0,0,1,.795,1.464,8.1,8.1,0,0,1,.228,2.023Zm-2.236-3.407h-.767a14.393,14.393,0,0,0-1.724.107,6.164,6.164,0,0,0-1.59.4,3.042,3.042,0,0,0-1.167.813,2.02,2.02,0,0,0-.449,1.37,2.239,2.239,0,0,0,.476,1.41,2.146,2.146,0,0,0,1.776.614,4.265,4.265,0,0,0,1.312-.2,5.035,5.035,0,0,0,1.1-.492,2.881,2.881,0,0,0,.754-.64,1.068,1.068,0,0,0,.278-.664Z" transform="translate(-203.157 -68.904)" fill="#989ba6"/><path d="M395.415,89.618a3.963,3.963,0,0,1-.227-1.105c-.026-.4-.04-.794-.04-1.185V74.869h.16a1.026,1.026,0,0,0,.148-.013,1.244,1.244,0,0,1,.173-.013,2.139,2.139,0,0,1,1.251.37,1.535,1.535,0,0,1,.532,1.348v2.115h3.966v1.943h-3.966v6.869q0,2.182,1.73,2.183a2.156,2.156,0,0,0,.8-.146,3.458,3.458,0,0,0,.666-.346,4.326,4.326,0,0,0,.492-.387,1.954,1.954,0,0,0,.253-.265,7.455,7.455,0,0,1,.547.772,1.388,1.388,0,0,1,.224.719.822.822,0,0,1-.239.519,2.412,2.412,0,0,1-.666.518,4.351,4.351,0,0,1-1.05.4,5.617,5.617,0,0,1-1.371.158,4.042,4.042,0,0,1-2.21-.531,2.9,2.9,0,0,1-1.171-1.464" transform="translate(-207.046 -67.955)" fill="#989ba6"/><path d="M412.538,90.655a4.153,4.153,0,0,0,2.343-.694,2.714,2.714,0,0,0,.665-.628,1.068,1.068,0,0,0,.24-.6v-9.18h.16a1.167,1.167,0,0,0,.146-.013,1.137,1.137,0,0,1,.172-.014,2.056,2.056,0,0,1,1.265.387,1.642,1.642,0,0,1,.519,1.4V92.2h-2.263V91.05a4.816,4.816,0,0,1-1.49,1.076,5.607,5.607,0,0,1-2.476.472,4.932,4.932,0,0,1-2.4-.478,3.168,3.168,0,0,1-1.264-1.225,4.055,4.055,0,0,1-.493-1.637c-.054-.595-.081-1.168-.081-1.717V79.555h.16a1.119,1.119,0,0,0,.145-.013,1.16,1.16,0,0,1,.174-.014,2.1,2.1,0,0,1,1.264.374,1.6,1.6,0,0,1,.519,1.387V87.56A7.411,7.411,0,0,0,410,89.215a1.515,1.515,0,0,0,.6.933,2.35,2.35,0,0,0,.867.4,4.845,4.845,0,0,0,1.078.107" transform="translate(-209.659 -68.94)" fill="#989ba6"/><path d="M426.8,79.571a2.047,2.047,0,0,1,1.105.307,1.365,1.365,0,0,1,.6,1.024,3.885,3.885,0,0,1,1.118-1.052,3.065,3.065,0,0,1,1.73-.493,3.89,3.89,0,0,1,.626.055,2.887,2.887,0,0,1,.626.172,1.269,1.269,0,0,1,.478.333.819.819,0,0,1,.186.559,2.307,2.307,0,0,1-.212.919,5.174,5.174,0,0,1-.426.812,2.661,2.661,0,0,0-.745-.492,2.55,2.55,0,0,0-1.013-.173,2.578,2.578,0,0,0-.865.146,2.55,2.55,0,0,0-.731.4,2.036,2.036,0,0,0-.506.572,1.3,1.3,0,0,0-.187.665v8.839h-2.261V79.6h.186a1.012,1.012,0,0,0,.16-.013.839.839,0,0,1,.132-.013" transform="translate(-213.597 -68.904)" fill="#989ba6"/><path d="M443.317,90.62a4.991,4.991,0,0,0,1.344-.16,4.162,4.162,0,0,0,.984-.4,4.75,4.75,0,0,0,.707-.492,5.125,5.125,0,0,0,.478-.465,5.4,5.4,0,0,1,.521.8,1.571,1.571,0,0,1,.225.666.893.893,0,0,1-.132.445,1.724,1.724,0,0,1-.453.472,5.4,5.4,0,0,1-1.57.77,8.351,8.351,0,0,1-4.672-.05,4.975,4.975,0,0,1-1.938-1.158,5.524,5.524,0,0,1-1.318-2.09,9.011,9.011,0,0,1-.484-3.155,7.74,7.74,0,0,1,.492-2.9,5.8,5.8,0,0,1,1.292-2.009,5.029,5.029,0,0,1,1.822-1.158,6.138,6.138,0,0,1,2.117-.373,5.473,5.473,0,0,1,2.328.453,4.379,4.379,0,0,1,1.585,1.211,5.025,5.025,0,0,1,.905,1.757,7.292,7.292,0,0,1,.293,2.062c0,.249,0,.5-.013.759a6.387,6.387,0,0,1-.067.733h-8.385a5.174,5.174,0,0,0,1.025,3.109,3.515,3.515,0,0,0,2.915,1.177m2.262-5.99a5.717,5.717,0,0,0-.146-1.331,2.936,2.936,0,0,0-.489-1.078,2.367,2.367,0,0,0-.914-.732,3.285,3.285,0,0,0-1.393-.266,3.037,3.037,0,0,0-2.265.905,3.8,3.8,0,0,0-.994,2.5Z" transform="translate(-215.842 -68.904)" fill="#989ba6"/><path d="M218.139,80.864l-2.3-2.3-2.2,2.2a3,3,0,0,0,0,4.221l2.295,2.3,2.2-2.2a2.994,2.994,0,0,0,0-4.22" transform="translate(-168.535 -68.696)" fill="#989ba6"/><path d="M190.254,80.764l-2.2-2.2-2.3,2.3a2.991,2.991,0,0,0,0,4.22l2.2,2.2,2.3-2.3a3,3,0,0,0,0-4.221" transform="translate(-162.768 -68.696)" fill="#989ba6" fill-rule="evenodd"/><path d="M241.057,78.2,229.862,67a3,3,0,0,0-4.224,0l-8.993,9,2.295,2.3a3,3,0,0,1,0,4.22l-2.2,2.2,8.9,8.9a3,3,0,0,0,4.224,0l11.2-11.2a3,3,0,0,0,0-4.221M233.9,79.492a4.006,4.006,0,0,1-1.272,3c-1.3,1.258-2.646,2.461-3.994,3.664a1.25,1.25,0,0,1-.547.271l-.067.017-.072.01a1.332,1.332,0,0,1-.2.017h-.013a1.363,1.363,0,0,1-.19-.017,1.286,1.286,0,0,1-.689-.3c-1.338-1.193-2.679-2.385-3.966-3.632a3.877,3.877,0,0,1-1.286-3c0-.017,0-.033,0-.05a3.433,3.433,0,0,1,.224-1.212c.01-.03.021-.06.032-.09s.013-.036.021-.052a3.111,3.111,0,0,1,1.46-1.638,3.432,3.432,0,0,1,1.079-.4c.092-.017.182-.032.273-.041l.033,0c.1-.009.189-.013.282-.013l.045,0,.052,0,.133.007a3.436,3.436,0,0,1,2.514,1.3,3.442,3.442,0,0,1,5.409.017c.041.052.082.106.12.16.021.03.041.061.061.092.044.067.086.136.125.206.006.012.014.024.02.036.047.087.09.177.129.269l.015.032c.039.094.073.189.1.286l.012.037c.029.1.055.194.076.293,0,.017.006.033.009.048.019.1.035.2.045.3,0,.021,0,.041,0,.063,0,.043.008.085.01.128s0,.084,0,.126c0,.017,0,.034,0,.052Z" transform="translate(-169.336 -66.124)" fill="#989ba6"/><path d="M202.35,76.387a1.523,1.523,0,1,0,1.523,1.523,1.524,1.524,0,0,0-1.523-1.523" transform="translate(-166.065 -68.245)" fill="#989ba6"/><path d="M208.674,82.443a3,3,0,0,1,0-4.221l2.2-2.2-8.9-8.9a3,3,0,0,0-4.224,0l-8.9,8.9,2.2,2.2a3,3,0,0,1,0,4.221l-2.3,2.3,9,9a3,3,0,0,0,4.224,0l8.994-9Zm-9.4,4.96a.84.84,0,1,1-1.681,0v-5.99l-3.5-2a.84.84,0,0,1,.834-1.459l3.922,2.24a.841.841,0,0,1,.423.73Zm.578-8.385a3.2,3.2,0,1,1,3.2-3.2,3.208,3.208,0,0,1-3.2,3.2m5.779.4-3.5,2V87.4a.84.84,0,1,1-1.681,0V80.924a.841.841,0,0,1,.424-.73l3.922-2.24a.84.84,0,1,1,.834,1.459" transform="translate(-163.568 -66.148)" fill="#989ba6"/><path d="M174.174,87.382l3.958-3.959a.506.506,0,1,0-.716-.716l-3.242,3.242v-2.6l2.191-2.191a.507.507,0,0,0-.717-.717l-1.474,1.475V79.2a.507.507,0,0,0-1.014,0v2.731l-1.492-1.492a.507.507,0,0,0-.716.717l2.208,2.208v2.6L169.9,82.707a.507.507,0,1,0-.717.716L173.16,87.4v2.514c.167.014.336.029.507.029s.34-.015.507-.029Z" transform="translate(-159.489 -68.723)" fill="#989ba6"/><path d="M179.989,78.29l2.3-2.3-9-9a3,3,0,0,0-4.224,0l-11.195,11.2a2.992,2.992,0,0,0,0,4.221l11.195,11.2a3,3,0,0,0,4.224,0l8.9-8.9-2.2-2.2a2.991,2.991,0,0,1,0-4.22m-2.865,3.267c0,.021,0,.043,0,.064a5.776,5.776,0,0,1-.216,1.565c-.01.039-.021.077-.032.115l-.019.069a3.962,3.962,0,0,1-1.1,1.785,5.892,5.892,0,0,1-9.062.121,3.973,3.973,0,0,1-.754-.909c-.04-.067-.079-.136-.116-.206-.021-.04-.04-.079-.059-.119-.043-.086-.083-.175-.121-.266l-.02-.048c-.046-.112-.087-.228-.125-.347l-.014-.042c-.038-.12-.071-.243-.1-.37l-.012-.048c-.029-.125-.052-.251-.073-.38,0-.021-.006-.041-.009-.062-.018-.126-.034-.253-.044-.383,0-.027,0-.055,0-.081,0-.055-.007-.11-.009-.166s0-.109,0-.163c0-.022,0-.044,0-.067l0-.024,0-.036c0-.062-.019-.121-.019-.183a5.881,5.881,0,0,1,.284-1.724c.029-.1.06-.209.1-.31a5.663,5.663,0,0,1,.224-.535,5.568,5.568,0,0,1,.314-.578c.06-.1.119-.2.186-.29.05-.071.088-.151.142-.221,1.255-1.624,2.562-3.178,3.867-4.732a1.13,1.13,0,0,1,.529-.35c.021-.007.042-.016.064-.021l.071-.014a1,1,0,0,1,.189-.02h.014a.931.931,0,0,1,.182.021,1.136,1.136,0,0,1,.669.391c1.294,1.54,2.591,3.081,3.837,4.69.074.1.13.2.2.3.033.046.061.093.092.14a5.9,5.9,0,0,1,.422.776c.042.093.084.185.121.279a5.762,5.762,0,0,1,.206.663c.044.166.09.329.12.5.02.125.025.257.038.386a5.762,5.762,0,0,1,.065.644c0,.061-.016.117-.017.178Z" transform="translate(-157 -66.122)" fill="#989ba6"/><path d="M42.42,8.672s1.689.473,1.858.591,3.53,2.432,3.53,2.567-.034.912,0,1.284.321,1.334,0,1.875a6.481,6.481,0,0,1-1.368,1.79c-.405.22-1.537.777-1.622.811a2.513,2.513,0,0,1-1.233.456,2.565,2.565,0,0,1-2.72-1.926c-.524-1.6-1.47-2.432-1-3.328a12.469,12.469,0,0,0,.743-1.976A3.859,3.859,0,0,1,41.355,9.5C41.643,9.246,42.42,8.672,42.42,8.672Z" transform="translate(3.221 0.703)" fill="#989ba6"/><path d="M2858.724,3876.891a6.535,6.535,0,0,0,1.79.372,6.243,6.243,0,0,1,2.128.59,18.612,18.612,0,0,1,.828,1.724c.016.22.321,1.031.354,1.266s.491,1.268,0,1.724a17.662,17.662,0,0,0-1.283,1.588c-.253.286-.541.709-.861.742a9.1,9.1,0,0,0-1.656.98h-.472a1.3,1.3,0,0,1-.913-.1c-.575-.236-1.858-.119-2.263-1.082s-.61-.743-.677-2.128a20.074,20.074,0,0,1-.118-3.326,3.381,3.381,0,0,1,.575-1.723,2.159,2.159,0,0,1,.759-.474,14.849,14.849,0,0,1,1.622-.153Z" transform="translate(-2834.152 -3867.28)" fill="#989ba6"/><path d="M179.989,78.29l2.3-2.3-9-9a3,3,0,0,0-4.224,0l-11.195,11.2a2.992,2.992,0,0,0,0,4.221l11.195,11.2a3,3,0,0,0,4.224,0l8.9-8.9-2.2-2.2a2.991,2.991,0,0,1,0-4.22m-2.865,3.267c0,.021,0,.043,0,.064a5.776,5.776,0,0,1-.216,1.565c-.01.039-.021.077-.032.115l-.019.069a3.962,3.962,0,0,1-1.1,1.785,5.892,5.892,0,0,1-9.062.121,3.973,3.973,0,0,1-.754-.909c-.04-.067-.079-.136-.116-.206-.021-.04-.04-.079-.059-.119-.043-.086-.083-.175-.121-.266l-.02-.048c-.046-.112-.087-.228-.125-.347l-.014-.042c-.038-.12-.071-.243-.1-.37l-.012-.048c-.029-.125-.052-.251-.073-.38,0-.021-.006-.041-.009-.062-.018-.126-.034-.253-.044-.383,0-.027,0-.055,0-.081,0-.055-.007-.11-.009-.166s0-.109,0-.163c0-.022,0-.044,0-.067l0-.024,0-.036c0-.062-.019-.121-.019-.183a5.881,5.881,0,0,1,.284-1.724c.029-.1.06-.209.1-.31a5.663,5.663,0,0,1,.224-.535,5.568,5.568,0,0,1,.314-.578c.06-.1.119-.2.186-.29.05-.071.088-.151.142-.221,1.255-1.624,2.562-3.178,3.867-4.732a1.13,1.13,0,0,1,.529-.35c.021-.007.042-.016.064-.021l.071-.014a1,1,0,0,1,.189-.02h.014a.931.931,0,0,1,.182.021,1.136,1.136,0,0,1,.669.391c1.294,1.54,2.591,3.081,3.837,4.69.074.1.13.2.2.3.033.046.061.093.092.14a5.9,5.9,0,0,1,.422.776c.042.093.084.185.121.279a5.762,5.762,0,0,1,.206.663c.044.166.09.329.12.5.02.125.025.257.038.386a5.762,5.762,0,0,1,.065.644c0,.061-.016.117-.017.178Z" transform="translate(-157 -66.122)" fill="#989ba6"/></svg>