<svg xmlns="http://www.w3.org/2000/svg" width="260.76" height="31.985" viewBox="0 0 260.76 31.985">
  <g id="Grupo_4580" data-name="Grupo 4580" transform="translate(0 0)">
    <path id="Caminho_8" data-name="Caminho 8" d="M274.079,82.661a13.369,13.369,0,0,1-.9,4.982,8.2,8.2,0,0,1-2.812,3.665,8.511,8.511,0,0,1-2.812,1.273,15.192,15.192,0,0,1-3.83.432h-4.668V73.086q1.585-.181,2.8-.24t2.259-.059a12.792,12.792,0,0,1,4.787.778,7.548,7.548,0,0,1,4.7,5.265,14.8,14.8,0,0,1,.479,3.83m-2.663.163a13.7,13.7,0,0,0-.33-3.1,5.959,5.959,0,0,0-1.17-2.458,5.487,5.487,0,0,0-2.235-1.605,9.341,9.341,0,0,0-3.5-.569c-.4,0-.816.011-1.246.03s-.856.059-1.276.119V90.829h2.491a8.246,8.246,0,0,0,3.407-.629,5.892,5.892,0,0,0,2.25-1.708,6.748,6.748,0,0,0,1.231-2.534,12.546,12.546,0,0,0,.374-3.134" transform="translate(-168.454 -66.87)" fill="#3b4157"/>
    <path id="Caminho_9" data-name="Caminho 9" d="M291.671,86.659a11.067,11.067,0,0,1-.359,2.828,6.836,6.836,0,0,1-1.153,2.408,5.7,5.7,0,0,1-2.049,1.675,6.763,6.763,0,0,1-3.052.629,6.96,6.96,0,0,1-3.036-.6A5.51,5.51,0,0,1,280,91.986a6.683,6.683,0,0,1-1.136-2.378,11.149,11.149,0,0,1-.36-2.859,9.544,9.544,0,0,1,.419-2.843,6.745,6.745,0,0,1,1.257-2.348,6.145,6.145,0,0,1,2.079-1.6,6.657,6.657,0,0,1,2.917-.6,6.783,6.783,0,0,1,2.992.6,5.61,5.61,0,0,1,2.005,1.6,6.569,6.569,0,0,1,1.137,2.319,10.561,10.561,0,0,1,.359,2.782m-2.663,0a10.32,10.32,0,0,0-.165-1.839,5.1,5.1,0,0,0-.587-1.646,3.23,3.23,0,0,0-1.171-1.182,3.766,3.766,0,0,0-1.951-.448,3.72,3.72,0,0,0-1.907.448,3.441,3.441,0,0,0-1.217,1.182,5.177,5.177,0,0,0-.645,1.646,8.736,8.736,0,0,0-.2,1.839,11,11,0,0,0,.165,1.886,5.049,5.049,0,0,0,.615,1.72,3.814,3.814,0,0,0,1.2,1.257,3.437,3.437,0,0,0,1.923.494,3.648,3.648,0,0,0,1.982-.494,3.45,3.45,0,0,0,1.2-1.257,5.463,5.463,0,0,0,.587-1.72,11.11,11.11,0,0,0,.165-1.886" transform="translate(-170.636 -67.608)" fill="#3b4157"/>
    <path id="Caminho_10" data-name="Caminho 10" d="M302.033,92.035a4.674,4.674,0,0,0,2.634-.779,3.068,3.068,0,0,0,.747-.706,1.2,1.2,0,0,0,.271-.674V79.558h.179a1.314,1.314,0,0,0,.164-.015,1.288,1.288,0,0,1,.194-.016,2.311,2.311,0,0,1,1.422.435,1.843,1.843,0,0,1,.583,1.57V93.769h-2.542V92.479a5.419,5.419,0,0,1-1.675,1.209,6.307,6.307,0,0,1-2.784.53,5.543,5.543,0,0,1-2.693-.537,3.574,3.574,0,0,1-1.421-1.377,4.594,4.594,0,0,1-.553-1.839c-.06-.668-.091-1.313-.091-1.93V79.558h.18a1.309,1.309,0,0,0,.165-.015,1.273,1.273,0,0,1,.194-.016,2.366,2.366,0,0,1,1.421.421,1.8,1.8,0,0,1,.583,1.559v7.049a8.329,8.329,0,0,0,.164,1.86,1.711,1.711,0,0,0,.674,1.048,2.625,2.625,0,0,0,.972.451,5.471,5.471,0,0,0,1.212.12" transform="translate(-172.652 -67.627)" fill="#3b4157"/>
    <path id="Caminho_11" data-name="Caminho 11" d="M314.091,91.449a4.443,4.443,0,0,1-.255-1.242c-.029-.449-.045-.892-.045-1.332v-14h.179a1.154,1.154,0,0,0,.166-.015,1.4,1.4,0,0,1,.194-.015,2.4,2.4,0,0,1,1.406.416,1.726,1.726,0,0,1,.6,1.515v2.377h4.457v2.184h-4.457v7.72q0,2.453,1.944,2.454a2.424,2.424,0,0,0,.9-.164,3.9,3.9,0,0,0,.748-.389,4.876,4.876,0,0,0,.553-.435,2.156,2.156,0,0,0,.284-.3,8.2,8.2,0,0,1,.614.867,1.555,1.555,0,0,1,.253.808.924.924,0,0,1-.269.583,2.713,2.713,0,0,1-.748.582,4.888,4.888,0,0,1-1.182.451,6.3,6.3,0,0,1-1.54.178,4.542,4.542,0,0,1-2.484-.6,3.259,3.259,0,0,1-1.316-1.646" transform="translate(-174.596 -67.101)" fill="#3b4157"/>
    <path id="Caminho_12" data-name="Caminho 12" d="M336.8,86.659a11.065,11.065,0,0,1-.36,2.828,6.833,6.833,0,0,1-1.152,2.408,5.716,5.716,0,0,1-2.05,1.675,6.766,6.766,0,0,1-3.051.629,6.971,6.971,0,0,1-3.038-.6,5.515,5.515,0,0,1-2.02-1.616,6.681,6.681,0,0,1-1.135-2.378,11.148,11.148,0,0,1-.359-2.859,9.511,9.511,0,0,1,.419-2.843,6.726,6.726,0,0,1,1.256-2.348,6.139,6.139,0,0,1,2.08-1.6,6.653,6.653,0,0,1,2.916-.6,6.792,6.792,0,0,1,2.993.6,5.6,5.6,0,0,1,2,1.6,6.536,6.536,0,0,1,1.138,2.319,10.558,10.558,0,0,1,.36,2.782m-2.663,0a10.307,10.307,0,0,0-.166-1.839,5.1,5.1,0,0,0-.586-1.646,3.239,3.239,0,0,0-1.172-1.182,3.768,3.768,0,0,0-1.952-.448,3.713,3.713,0,0,0-1.906.448,3.437,3.437,0,0,0-1.216,1.182,5.126,5.126,0,0,0-.646,1.646,8.693,8.693,0,0,0-.2,1.839,11.092,11.092,0,0,0,.164,1.886,5.081,5.081,0,0,0,.616,1.72,3.809,3.809,0,0,0,1.2,1.257,3.426,3.426,0,0,0,1.921.494,3.647,3.647,0,0,0,1.982-.494,3.466,3.466,0,0,0,1.2-1.257,5.459,5.459,0,0,0,.586-1.72,11.1,11.1,0,0,0,.166-1.886" transform="translate(-175.701 -67.608)" fill="#3b4157"/>
    <path id="Caminho_13" data-name="Caminho 13" d="M342.269,79.6a2.3,2.3,0,0,1,1.242.345,1.533,1.533,0,0,1,.674,1.151,4.379,4.379,0,0,1,1.257-1.183,3.444,3.444,0,0,1,1.945-.554,4.367,4.367,0,0,1,.7.061,3.226,3.226,0,0,1,.7.193,1.429,1.429,0,0,1,.538.374.922.922,0,0,1,.209.629,2.589,2.589,0,0,1-.239,1.032,5.722,5.722,0,0,1-.479.913,2.99,2.99,0,0,0-.837-.553,2.866,2.866,0,0,0-1.138-.194,2.9,2.9,0,0,0-1.794.613,2.29,2.29,0,0,0-.568.643,1.457,1.457,0,0,0-.21.747v9.934h-2.543V79.628h.209a1.138,1.138,0,0,0,.18-.015.944.944,0,0,1,.148-.015" transform="translate(-177.732 -67.608)" fill="#3b4157"/>
    <path id="Caminho_14" data-name="Caminho 14" d="M367.74,89.049V72.981a.84.84,0,0,0,.21-.029,2.128,2.128,0,0,0,.226-.014,2.6,2.6,0,0,1,.284-.015,2.377,2.377,0,0,1,.567.074,1.556,1.556,0,0,1,.555.27,1.415,1.415,0,0,1,.419.569,2.459,2.459,0,0,1,.164.972V93.028H367.74L357.569,77.5V93.028h-2.424V73.071a3,3,0,0,1,.51-.1,4.964,4.964,0,0,1,.658-.044,2.013,2.013,0,0,1,1.033.224,2.208,2.208,0,0,1,.7.763Z" transform="translate(-179.238 -66.885)" fill="#3b4157"/>
    <path id="Caminho_15" data-name="Caminho 15" d="M388.105,90.489a7.909,7.909,0,0,0,.061,1.122,1.17,1.17,0,0,0,.223.6.777.777,0,0,0,.449.255,3.615,3.615,0,0,0,.734.059v1.2a4.012,4.012,0,0,1-.66.15,5.18,5.18,0,0,1-.808.059,3.407,3.407,0,0,1-1.635-.373,1.628,1.628,0,0,1-.817-1.332,6.81,6.81,0,0,1-1.791,1.272,6.159,6.159,0,0,1-2.743.524,7.1,7.1,0,0,1-1.566-.18,3.8,3.8,0,0,1-1.431-.658,3.7,3.7,0,0,1-1.059-1.288,4.5,4.5,0,0,1-.417-2.065,3.941,3.941,0,0,1,.791-2.543,5.629,5.629,0,0,1,1.953-1.555,8.711,8.711,0,0,1,2.49-.779,18.948,18.948,0,0,1,2.429-.239h.627a5.621,5.621,0,0,1,.627.029V84.3a2.942,2.942,0,0,0-.643-2.05,3.319,3.319,0,0,0-2.47-.7,6.6,6.6,0,0,0-2.273.344,8.2,8.2,0,0,0-1.8.943h-.3a4.452,4.452,0,0,1-.4-.838,2.227,2.227,0,0,1-.166-.718.946.946,0,0,1,.48-.733,4.954,4.954,0,0,1,1.241-.612,9.725,9.725,0,0,1,1.691-.42,11.465,11.465,0,0,1,1.825-.15,8.421,8.421,0,0,1,2.546.329,3.935,3.935,0,0,1,1.658.988,3.634,3.634,0,0,1,.893,1.646,9.105,9.105,0,0,1,.257,2.274Zm-2.513-3.83h-.862a16.176,16.176,0,0,0-1.937.12,6.928,6.928,0,0,0-1.787.449,3.419,3.419,0,0,0-1.311.914,2.271,2.271,0,0,0-.505,1.54,2.516,2.516,0,0,0,.535,1.585,2.412,2.412,0,0,0,2,.69,4.793,4.793,0,0,0,1.474-.225,5.66,5.66,0,0,0,1.236-.553,3.238,3.238,0,0,0,.848-.719,1.2,1.2,0,0,0,.313-.747Z" transform="translate(-181.65 -67.608)" fill="#3b4157"/>
    <path id="Caminho_16" data-name="Caminho 16" d="M395.448,91.449a4.452,4.452,0,0,1-.255-1.242c-.029-.449-.045-.892-.045-1.332v-14h.179a1.154,1.154,0,0,0,.166-.015,1.4,1.4,0,0,1,.195-.015,2.4,2.4,0,0,1,1.406.416,1.725,1.725,0,0,1,.6,1.515v2.377h4.457v2.184h-4.457v7.72q0,2.453,1.944,2.454a2.423,2.423,0,0,0,.9-.164,3.885,3.885,0,0,0,.748-.389,4.858,4.858,0,0,0,.553-.435,2.2,2.2,0,0,0,.284-.3,8.385,8.385,0,0,1,.615.867,1.56,1.56,0,0,1,.252.808.924.924,0,0,1-.269.583,2.711,2.711,0,0,1-.749.582,4.891,4.891,0,0,1-1.181.451,6.313,6.313,0,0,1-1.541.178,4.543,4.543,0,0,1-2.484-.6,3.26,3.26,0,0,1-1.316-1.646" transform="translate(-183.727 -67.101)" fill="#3b4157"/>
    <path id="Caminho_17" data-name="Caminho 17" d="M413.152,92.035a4.668,4.668,0,0,0,2.633-.779,3.051,3.051,0,0,0,.747-.706,1.2,1.2,0,0,0,.27-.674V79.558h.18a1.313,1.313,0,0,0,.164-.015,1.278,1.278,0,0,1,.194-.016,2.311,2.311,0,0,1,1.422.435,1.846,1.846,0,0,1,.583,1.57V93.769H416.8V92.479a5.413,5.413,0,0,1-1.675,1.209,6.3,6.3,0,0,1-2.783.53,5.543,5.543,0,0,1-2.693-.537,3.561,3.561,0,0,1-1.42-1.377,4.558,4.558,0,0,1-.554-1.839c-.061-.668-.091-1.313-.091-1.93V79.558h.18a1.259,1.259,0,0,0,.163-.015,1.3,1.3,0,0,1,.2-.016,2.362,2.362,0,0,1,1.42.421,1.8,1.8,0,0,1,.583,1.559v7.049a8.331,8.331,0,0,0,.166,1.86,1.7,1.7,0,0,0,.672,1.048,2.641,2.641,0,0,0,.974.451,5.446,5.446,0,0,0,1.211.12" transform="translate(-185.123 -67.627)" fill="#3b4157"/>
    <path id="Caminho_18" data-name="Caminho 18" d="M426.862,79.6a2.3,2.3,0,0,1,1.242.345,1.534,1.534,0,0,1,.674,1.151,4.367,4.367,0,0,1,1.257-1.183,3.445,3.445,0,0,1,1.944-.554,4.373,4.373,0,0,1,.7.061,3.245,3.245,0,0,1,.7.193,1.426,1.426,0,0,1,.538.374.92.92,0,0,1,.209.629,2.593,2.593,0,0,1-.239,1.032,5.818,5.818,0,0,1-.479.913,2.991,2.991,0,0,0-.837-.553,2.866,2.866,0,0,0-1.138-.194,2.9,2.9,0,0,0-.972.164,2.867,2.867,0,0,0-.822.449,2.289,2.289,0,0,0-.568.643,1.458,1.458,0,0,0-.21.747v9.934h-2.542V79.628h.209a1.137,1.137,0,0,0,.18-.015.944.944,0,0,1,.148-.015" transform="translate(-187.226 -67.608)" fill="#3b4157"/>
    <path id="Caminho_19" data-name="Caminho 19" d="M444.1,92.016a5.609,5.609,0,0,0,1.511-.18,4.679,4.679,0,0,0,1.106-.448,5.341,5.341,0,0,0,.794-.553,5.76,5.76,0,0,0,.537-.523,6.072,6.072,0,0,1,.585.9,1.766,1.766,0,0,1,.253.748,1,1,0,0,1-.148.5,1.937,1.937,0,0,1-.51.53,6.069,6.069,0,0,1-1.765.866,9.385,9.385,0,0,1-5.251-.056,5.592,5.592,0,0,1-2.178-1.3,6.209,6.209,0,0,1-1.482-2.349,10.129,10.129,0,0,1-.544-3.546,8.7,8.7,0,0,1,.553-3.262,6.52,6.52,0,0,1,1.452-2.258,5.652,5.652,0,0,1,2.048-1.3,6.9,6.9,0,0,1,2.379-.419,6.152,6.152,0,0,1,2.617.509,4.922,4.922,0,0,1,1.781,1.361,5.648,5.648,0,0,1,1.017,1.975,8.2,8.2,0,0,1,.329,2.318c0,.28-.005.565-.015.853a7.161,7.161,0,0,1-.076.824H439.67a5.815,5.815,0,0,0,1.152,3.494,3.951,3.951,0,0,0,3.276,1.323m2.542-6.733a6.424,6.424,0,0,0-.164-1.5,3.3,3.3,0,0,0-.55-1.212,2.66,2.66,0,0,0-1.028-.823,3.693,3.693,0,0,0-1.565-.3,3.414,3.414,0,0,0-2.546,1.017,4.269,4.269,0,0,0-1.118,2.813Z" transform="translate(-188.425 -67.608)" fill="#3b4157"/>
    <g id="Grupo_930" data-name="Grupo 930">
      <g id="Grupo_690" data-name="Grupo 690">
        <g id="Grupo_1" data-name="Grupo 1">
          <path id="Caminho_1" data-name="Caminho 1" d="M218.8,81.149l-2.581-2.581-2.473,2.475a3.367,3.367,0,0,0,0,4.745l2.579,2.58,2.475-2.476a3.365,3.365,0,0,0,0-4.743" transform="translate(-163.052 -67.473)" fill="#3b4157"/>
          <path id="Caminho_2" data-name="Caminho 2" d="M190.92,81.037l-2.472-2.472-2.583,2.584a3.362,3.362,0,0,0,0,4.743l2.473,2.474,2.582-2.584a3.369,3.369,0,0,0,0-4.745" transform="translate(-160.026 -67.472)" fill="#3b4157" fill-rule="evenodd"/>
          <path id="Caminho_3" data-name="Caminho 3" d="M244.084,79.693,231.5,67.108a3.369,3.369,0,0,0-4.747,0L216.645,77.218l2.579,2.581a3.368,3.368,0,0,1,0,4.744l-2.475,2.475,10,10.005a3.366,3.366,0,0,0,4.747,0l12.583-12.585a3.369,3.369,0,0,0,0-4.745m-8.048,1.455a4.5,4.5,0,0,1-1.429,3.375c-1.457,1.414-2.974,2.766-4.489,4.119a1.405,1.405,0,0,1-.615.3c-.025.006-.049.013-.075.019l-.081.012a1.5,1.5,0,0,1-.22.019h-.015a1.531,1.531,0,0,1-.213-.019,1.446,1.446,0,0,1-.775-.341c-1.5-1.341-3.011-2.681-4.458-4.082a4.358,4.358,0,0,1-1.445-3.37c0-.019,0-.037,0-.056a3.858,3.858,0,0,1,.251-1.362c.012-.034.024-.067.036-.1s.015-.04.024-.059a3.5,3.5,0,0,1,1.64-1.841,3.857,3.857,0,0,1,1.212-.446c.1-.02.2-.036.307-.046l.037,0c.107-.01.212-.014.317-.015l.051,0,.058,0,.15.008a3.862,3.862,0,0,1,2.825,1.456,3.869,3.869,0,0,1,6.08.019c.046.059.092.119.135.18.024.034.046.069.069.1.049.075.1.152.141.232.007.013.016.027.023.041.053.1.1.2.145.3l.017.036c.044.105.082.212.117.322l.013.042c.033.108.061.218.086.33,0,.019.006.037.01.054.021.11.039.221.051.334,0,.023,0,.046.005.07,0,.048.009.1.012.144s0,.094,0,.142c0,.02,0,.038,0,.059Z" transform="translate(-163.472 -66.123)" fill="#3b4157"/>
          <path id="Caminho_4" data-name="Caminho 4" d="M202.539,76.387A1.712,1.712,0,1,0,204.25,78.1a1.713,1.713,0,0,0-1.712-1.712" transform="translate(-161.755 -67.236)" fill="#3b4157"/>
          <path id="Caminho_5" data-name="Caminho 5" d="M211.143,84.45a3.369,3.369,0,0,1,0-4.745l2.475-2.475-10-10.005a3.367,3.367,0,0,0-4.747,0l-10,10L191.34,79.7a3.369,3.369,0,0,1,0,4.745l-2.583,2.584,10.111,10.114a3.369,3.369,0,0,0,4.747,0L213.723,87.03Zm-10.565,5.575a.945.945,0,1,1-1.889,0V83.292l-3.932-2.247a.945.945,0,0,1,.937-1.64l4.408,2.518a.945.945,0,0,1,.475.82Zm.65-9.425a3.6,3.6,0,1,1,3.6-3.6,3.606,3.606,0,0,1-3.6,3.6m6.5.446-3.932,2.247v6.733a.945.945,0,1,1-1.889,0V82.743a.946.946,0,0,1,.476-.82l4.408-2.518a.945.945,0,1,1,.937,1.64" transform="translate(-160.446 -66.136)" fill="#3b4157"/>
          <path id="Caminho_6" data-name="Caminho 6" d="M174.811,88.459l4.449-4.449a.569.569,0,0,0-.805-.805l-3.644,3.644v-2.92l2.462-2.462a.57.57,0,1,0-.806-.806l-1.656,1.657v-3.05a.57.57,0,0,0-1.139,0v3.069l-1.677-1.677a.57.57,0,0,0-.805.806l2.482,2.482v2.92L170.008,83.2a.57.57,0,0,0-.806.805l4.469,4.47v2.826c.188.016.377.032.57.032s.382-.017.57-.033Z" transform="translate(-158.306 -67.487)" fill="#3b4157"/>
          <path id="Caminho_7" data-name="Caminho 7" d="M182.839,79.8l2.583-2.584L175.311,67.1a3.367,3.367,0,0,0-4.748,0L157.98,79.687a3.362,3.362,0,0,0,0,4.745l12.583,12.586a3.372,3.372,0,0,0,4.748,0l10-10-2.472-2.474a3.362,3.362,0,0,1,0-4.743m-3.22,3.672c0,.024,0,.048,0,.072a6.491,6.491,0,0,1-.243,1.759c-.012.044-.024.086-.036.129-.007.026-.014.053-.021.078a4.453,4.453,0,0,1-1.237,2.007,6.622,6.622,0,0,1-10.185.135,4.465,4.465,0,0,1-.848-1.022c-.045-.076-.088-.152-.13-.232-.023-.045-.045-.088-.066-.134-.048-.1-.094-.2-.136-.3l-.022-.053c-.052-.126-.1-.257-.141-.39l-.016-.047c-.043-.135-.08-.274-.113-.415l-.013-.053c-.032-.14-.059-.282-.082-.427,0-.023-.007-.046-.01-.07-.021-.142-.038-.284-.05-.431,0-.03,0-.062-.005-.091,0-.062-.008-.124-.01-.186s0-.122,0-.183c0-.025,0-.05,0-.076l0-.027,0-.04c0-.07-.021-.136-.021-.206a6.61,6.61,0,0,1,.319-1.938c.033-.118.068-.235.108-.349a6.368,6.368,0,0,1,.251-.6,6.259,6.259,0,0,1,.353-.65c.068-.11.134-.219.209-.325.056-.08.1-.17.16-.249,1.41-1.826,2.88-3.572,4.346-5.319a1.27,1.27,0,0,1,.595-.393c.024-.008.047-.018.071-.024l.08-.016a1.122,1.122,0,0,1,.212-.022h.015a1.046,1.046,0,0,1,.2.023,1.276,1.276,0,0,1,.752.439c1.455,1.731,2.913,3.463,4.312,5.271.083.107.146.228.223.341.037.052.069.1.1.158a6.631,6.631,0,0,1,.474.873c.047.1.095.208.136.314a6.48,6.48,0,0,1,.232.745c.049.186.1.37.135.563.022.14.028.289.043.434a6.472,6.472,0,0,1,.073.724c0,.069-.018.132-.02.2Z" transform="translate(-157 -66.122)" fill="#3b4157"/>
        </g>
        <path id="Caminho_132" data-name="Caminho 132" d="M42.752,8.672s1.9.532,2.088.664,3.968,2.734,3.968,2.886-.038,1.025,0,1.443.361,1.5,0,2.107a7.284,7.284,0,0,1-1.538,2.012c-.456.247-1.728.873-1.823.911a2.824,2.824,0,0,1-1.386.513,2.883,2.883,0,0,1-3.057-2.164c-.589-1.8-1.652-2.734-1.12-3.74a14.015,14.015,0,0,0,.835-2.221A4.337,4.337,0,0,1,41.556,9.6C41.878,9.317,42.752,8.672,42.752,8.672Z" transform="translate(8.547 1.865)" fill="#3b4157"/>
      </g>
      <path id="Caminho_134" data-name="Caminho 134" d="M2859.119,3876.891a7.363,7.363,0,0,0,2.012.418,7.016,7.016,0,0,1,2.393.663,20.886,20.886,0,0,1,.93,1.938c.018.247.36,1.159.4,1.423s.552,1.425,0,1.938a19.846,19.846,0,0,0-1.443,1.785c-.284.322-.607.8-.967.835a10.22,10.22,0,0,0-1.861,1.1h-.531a1.466,1.466,0,0,1-1.026-.114c-.646-.266-2.088-.133-2.543-1.215s-.685-.835-.76-2.392a22.581,22.581,0,0,1-.133-3.739,3.8,3.8,0,0,1,.646-1.936,2.43,2.43,0,0,1,.854-.533,16.765,16.765,0,0,1,1.823-.171Z" transform="translate(-2831.501 -3866.088)" fill="#3b4157"/>
    </g>
    <path id="Caminho_553" data-name="Caminho 553" d="M182.839,79.8l2.583-2.584L175.311,67.1a3.367,3.367,0,0,0-4.748,0L157.98,79.687a3.362,3.362,0,0,0,0,4.745l12.583,12.586a3.372,3.372,0,0,0,4.748,0l10-10-2.472-2.474a3.362,3.362,0,0,1,0-4.743m-3.22,3.672c0,.024,0,.048,0,.072a6.491,6.491,0,0,1-.243,1.759c-.012.044-.024.086-.036.129-.007.026-.014.053-.021.078a4.453,4.453,0,0,1-1.237,2.007,6.622,6.622,0,0,1-10.185.135,4.465,4.465,0,0,1-.848-1.022c-.045-.076-.088-.152-.13-.232-.023-.045-.045-.088-.066-.134-.048-.1-.094-.2-.136-.3l-.022-.053c-.052-.126-.1-.257-.141-.39l-.016-.047c-.043-.135-.08-.274-.113-.415l-.013-.053c-.032-.14-.059-.282-.082-.427,0-.023-.007-.046-.01-.07-.021-.142-.038-.284-.05-.431,0-.03,0-.062-.005-.091,0-.062-.008-.124-.01-.186s0-.122,0-.183c0-.025,0-.05,0-.076l0-.027,0-.04c0-.07-.021-.136-.021-.206a6.61,6.61,0,0,1,.319-1.938c.033-.118.068-.235.108-.349a6.368,6.368,0,0,1,.251-.6,6.259,6.259,0,0,1,.353-.65c.068-.11.134-.219.209-.325.056-.08.1-.17.16-.249,1.41-1.826,2.88-3.572,4.346-5.319a1.27,1.27,0,0,1,.595-.393c.024-.008.047-.018.071-.024l.08-.016a1.122,1.122,0,0,1,.212-.022h.015a1.046,1.046,0,0,1,.2.023,1.276,1.276,0,0,1,.752.439c1.455,1.731,2.913,3.463,4.312,5.271.083.107.146.228.223.341.037.052.069.1.1.158a6.631,6.631,0,0,1,.474.873c.047.1.095.208.136.314a6.48,6.48,0,0,1,.232.745c.049.186.1.37.135.563.022.14.028.289.043.434a6.472,6.472,0,0,1,.073.724c0,.069-.018.132-.02.2Z" transform="translate(-157 -66.122)" fill="#3b4157"/>
  </g>
</svg>
